<svg width="458" height="152" viewBox="0 0 458 152" xmlns="http://www.w3.org/2000/svg"><g fill="none" fill-rule="evenodd"><path d="M411.754 64.578c0 10.053-8.16 18.21-18.223 18.21-10.057 0-18.22-8.157-18.22-18.21 0-10.064 8.163-18.222 18.22-18.222 10.066 0 18.225 8.158 18.225 18.222zM191.807 126.96v19.563h-9.696V125.93c0-3.765-2.823-6.087-6.14-6.087-3.997 0-6.523 2.723-6.523 6.342v20.338h-9.706v-33.69h9.48v3.77c1.56-2.32 5.075-3.77 9.857-3.77 9.273 0 12.73 6.947 12.73 14.126zm31.37 15.57a16.748 16.748 0 0 1-10.88 3.992 16.72 16.72 0 0 1-11.87-4.934c-3.057-3.052-4.945-7.252-4.945-11.883 0-4.643 1.89-8.835 4.924-11.882 3.057-3.04 7.255-4.992 11.893-4.992 4.15 0 7.94 1.58 10.88 4.08v-4.078h7.654v33.68h-7.656v-3.982zm-4.41-6.37a9.076 9.076 0 0 0 2.66-6.453c0-2.418-.96-4.737-2.67-6.448a9.1 9.1 0 0 0-6.46-2.657 9.076 9.076 0 0 0-6.44 2.666 9.03 9.03 0 0 0-2.656 6.437c0 2.53.996 4.81 2.643 6.453a9.158 9.158 0 0 0 6.455 2.66 9.15 9.15 0 0 0 6.46-2.66h.01zm62.11 6.37c2.95 2.49 6.73 3.992 10.877 3.992 4.65 0 8.84-1.883 11.886-4.934 3.05-3.052 4.937-7.252 4.937-11.883 0-4.643-1.888-8.835-4.923-11.882-3.046-3.04-7.25-4.992-11.9-4.992-4.147 0-7.928 1.58-10.878 4.08v-4.078h-7.645v39.014h7.647v-9.316zm4.42-6.37a9.12 9.12 0 0 1-2.654-6.453c0-2.52 1.02-4.804 2.665-6.448a9.06 9.06 0 0 1 6.446-2.657 9.114 9.114 0 0 1 6.46 2.666 9.127 9.127 0 0 1 2.666 6.437 9.12 9.12 0 0 1-2.658 6.453 9.148 9.148 0 0 1-6.47 2.66 9.11 9.11 0 0 1-6.445-2.66h-.01zm-43.136 6.37a16.72 16.72 0 0 0 10.88 3.992c4.62 0 8.82-1.883 11.866-4.934 3.063-3.052 4.955-7.252 4.955-11.883 0-4.643-1.892-8.835-4.933-11.882-3.045-3.04-7.25-4.992-11.887-4.992-4.15 0-7.95 1.58-10.88 4.08v-4.078h-7.642v39.014h7.64v-9.316h.003zm4.415-6.37a9.085 9.085 0 0 1-2.667-6.453 9.053 9.053 0 0 1 2.68-6.448c1.633-1.65 3.916-2.657 6.453-2.657a9.07 9.07 0 0 1 6.435 2.666 9.058 9.058 0 0 1 2.683 6.437 9.15 9.15 0 0 1-2.656 6.453 9.17 9.17 0 0 1-6.46 2.66 9.117 9.117 0 0 1-6.453-2.66h-.014zm-118.373 5.1l5.688-4.524c1.833 1.877 4.302 3.576 8.445 3.576 2.754 0 4.507-1.06 4.507-2.954 0-5.033-17.366-3.08-17.366-14.772 0-6.103 5.82-9.754 13.352-9.754 6.98 0 10.838 3.27 12.595 5.85l-6.404 4.27c-1.126-1.254-3.17-3.137-6.624-3.137-2.24 0-3.78 1.007-3.78 2.646 0 5.21 17.44 2.7 17.44 14.458 0 6.412-6.183 10.438-14.142 10.438-7.254 0-11.738-3.27-13.71-6.1l-.002.003z" fill="#04ACBC"/><path d="M119.995 70.75c2.73-2.41 4.912-4.743 6.556-7.015 2.61-3.63 4.69-7.66 6.62-11.48l15.06 7.736c-1.502 3.518-3.41 7.97-4.186 11.6-.368 1.786-.55 3.3-.55 4.49 0 3.458.8 5.434 4.343 6.2 3.436.656 6.942.67 10.16-1.026 1.84-.964 3.21-2.073 4.103-3.29.885-1.233 1.437-2.39 1.66-3.494.416-2.155.302-3.107.362-5.28V52.253h17.643v20.05c0 1.792.147 3.226.43 4.318.285 1.084.642 1.96 1.043 2.615.438.66.86 1.142 1.303 1.45.414.31.77.536 1.05.666a8.266 8.266 0 0 0 2.6.93c2.574.493 5.15.38 7.78.424h87.182c.01.162.028.41.028.644l.016.373c.02 13.045-9.208 16.76-9.208 16.76h-78.04c-2.53 0-5.14-.17-7.655-.51-1.822-.245-3.5-.62-5.317-1.1a27.092 27.092 0 0 1-5.367-2.09c-1.668-.845-3.236-1.904-4.756-3.18-2.494 2.12-5.366 3.775-8.635 4.944-6.39 2.337-15.198 2.52-21.64.53-1.56-.478-3.072-1.1-4.515-1.86a24.14 24.14 0 0 1-4.435-3.053c-1.455-1.222-2.743-2.715-3.88-4.457-.27-.52-.556-1.028-.822-1.52-.27-.504-.568-.996-.8-1.51-6.497 4.935-12.94 9.023-21.2 11.48-5.788 1.867-13.448 2.327-19.53 2.327H9.37c1.876-.088-9.424-12.222-9.188-17.78h87.82c2.765-.09 5.92-.235 8.653-.712 8.677-1.515 17.172-5.724 23.34-11.237zm188.582-59.156c-13.845-.584-17.768 9.183-17.768 9.183V99.87c0 .217.01.406.01.612h17.756V11.594z" fill="#324E6A"/><path d="M60.23 112.834c9.015 0 16.32 7.31 16.32 16.333 0 9.03-7.305 16.33-16.32 16.33-9.002 0-16.328-7.3-16.328-16.33 0-9.024 7.326-16.333 16.33-16.333h-.002zm37.988 0c9.025 0 16.317 7.31 16.317 16.333 0 9.03-7.292 16.33-16.317 16.33-8.992 0-16.318-7.3-16.318-16.33 0-9.024 7.326-16.333 16.318-16.333zm56.208-102.82c9.014 0 16.302 7.3 16.302 16.334 0 9.025-7.288 16.317-16.302 16.317-9.02 0-16.33-7.292-16.33-16.317.002-9.035 7.31-16.333 16.33-16.333zM22.24 112.835c9.002 0 16.312 7.31 16.312 16.333 0 9.03-7.31 16.33-16.312 16.33-8.998 0-16.317-7.3-16.317-16.33 0-9.024 7.32-16.333 16.317-16.333z" fill="#04ACBC"/><path d="M354.973 64.676c0-21.296 17.27-38.555 38.56-38.555 21.294 0 38.563 17.26 38.563 38.557 0 15.256-8.894 28.41-21.765 34.658l21.075 18.113c16.8-16.646 25.684-33.332 25.72-53.14.034-16.93-6.556-32.862-18.54-44.874C426.54 7.38 410.55.736 393.505.736c-35.048 0-63.566 28.524-63.566 63.572 0 21.87 10.87 39.972 31.43 58.49 15.412 13.895 30.584 21.242 31.21 21.54l.927.443.947-.442c.465-.215 8.656-4.167 19.055-11.654-31.32-23.232-44.167-37.147-48.196-41.8-6.24-7.023-10.34-16.07-10.34-26.207z" fill="#324E6A"/></g></svg>